<svg version="1.1" id="Layer_1" xmlns="http://www.w3.org/2000/svg" xmlns:xlink="http://www.w3.org/1999/xlink" x="0px" y="0px"
	 width="100%" viewBox="0 0 1080 1080" enable-background="new 0 0 1080 1080"  xml:space="preserve">
<path fill="white" opacity="1.000000" stroke="none" 
	d="
M631.000000,1081.000000 
	C420.690887,1081.000000 210.881760,1081.000000 1.036320,1081.000000 
	C1.036320,721.065735 1.036320,361.131500 1.036320,1.098634 
	C360.892670,1.098634 720.785400,1.098634 1080.839111,1.098634 
	C1080.839111,360.999939 1080.839111,720.999939 1080.839111,1081.000000 
	C931.131042,1081.000000 781.315491,1081.000000 631.000000,1081.000000 
M418.945282,383.302643 
	C422.449524,362.908539 421.008362,342.824860 414.862640,323.110229 
	C396.344818,263.707458 338.119171,224.680801 273.857819,233.507629 
	C233.426224,239.061234 202.028854,259.877625 180.819672,294.836151 
	C160.822998,327.796143 156.246323,363.541290 168.102188,400.029419 
	C183.243271,446.628082 215.405670,476.759247 263.475159,487.505432 
	C309.065948,497.697479 349.211823,485.363983 382.769348,452.906067 
	C402.243652,434.069855 413.848999,410.768860 418.945282,383.302643 
M878.918091,352.685333 
	C878.159363,346.741119 877.759277,340.725189 876.586975,334.863678 
	C863.315125,268.505280 801.307556,223.717743 734.217041,231.913406 
	C671.623108,239.559769 624.292114,290.002136 620.741333,352.849915 
	C619.107361,381.772003 626.107178,408.597198 642.440125,432.354156 
	C662.957764,462.198090 691.194397,481.227112 727.247253,487.294983 
	C767.364807,494.046967 803.526489,484.496979 834.259583,457.800110 
	C865.706787,430.483002 880.201721,395.292755 878.918091,352.685333 
M891.244812,216.266083 
	C910.591187,237.073502 924.697693,261.015289 933.495605,287.988922 
	C939.028992,304.953949 943.143982,322.209656 942.284485,340.333221 
	C941.808716,350.366180 949.193604,359.059753 959.461853,361.468903 
	C968.534973,363.597626 978.567444,358.773956 982.931519,350.281433 
	C986.546875,343.245789 986.037781,335.737488 985.501831,328.261780 
	C983.255005,296.921783 974.401306,267.390747 959.962097,239.633652 
	C931.349243,184.630005 887.232361,146.902435 829.719055,124.541046 
	C793.045654,110.282280 754.943604,104.473190 715.672791,106.058258 
	C703.862061,106.534966 696.050354,112.078911 692.958069,121.463371 
	C688.738159,134.269913 698.735474,150.604721 715.617432,149.376740 
	C736.322449,147.870712 756.868652,149.836349 777.185181,154.066452 
	C821.225586,163.236115 859.595764,182.865814 891.244812,216.266083 
M61.573925,353.847870 
	C67.334084,360.316956 74.452065,363.381195 83.018845,361.376587 
	C91.660973,359.354309 97.566849,353.929718 99.394562,345.079010 
	C100.187721,341.238129 99.606232,337.130737 99.854759,333.157288 
	C101.997757,298.895355 113.261703,267.615967 132.627029,239.578918 
	C171.117706,183.852295 226.215424,156.917068 292.242676,150.131485 
	C303.791931,148.944565 315.526642,149.290970 327.171539,149.395081 
	C335.963898,149.473663 342.786682,146.410355 347.197021,138.758102 
	C355.777802,123.869781 345.654846,106.495476 327.534424,106.275330 
	C311.090027,106.075562 294.506256,106.388542 278.194458,108.285530 
	C229.356964,113.965103 184.940155,131.458527 146.233490,161.970917 
	C109.929451,190.589340 84.117714,227.033463 68.939293,270.819061 
	C61.705418,291.686798 56.856262,313.027710 56.590973,335.252869 
	C56.513950,341.705353 57.165253,347.892517 61.573925,353.847870 
z"/>
<path fill="#0197FD" opacity="1.000000" stroke="none" 
	d="
M418.894653,383.733887 
	C413.848999,410.768860 402.243652,434.069855 382.769348,452.906067 
	C349.211823,485.363983 309.065948,497.697479 263.475159,487.505432 
	C215.405670,476.759247 183.243271,446.628082 168.102188,400.029419 
	C156.246323,363.541290 160.822998,327.796143 180.819672,294.836151 
	C202.028854,259.877625 233.426224,239.061234 273.857819,233.507629 
	C338.119171,224.680801 396.344818,263.707458 414.862640,323.110229 
	C421.008362,342.824860 422.449524,362.908539 418.894653,383.733887 
z"/>
<path fill="#0197FD" opacity="1.000000" stroke="none" 
	d="
M878.936646,353.165222 
	C880.201721,395.292755 865.706787,430.483002 834.259583,457.800110 
	C803.526489,484.496979 767.364807,494.046967 727.247253,487.294983 
	C691.194397,481.227112 662.957764,462.198090 642.440125,432.354156 
	C626.107178,408.597198 619.107361,381.772003 620.741333,352.849915 
	C624.292114,290.002136 671.623108,239.559769 734.217041,231.913406 
	C801.307556,223.717743 863.315125,268.505280 876.586975,334.863678 
	C877.759277,340.725189 878.159363,346.741119 878.936646,353.165222 
z"/>
<path fill="#0394F9" opacity="1.000000" stroke="none" 
	d="
M891.008057,216.002014 
	C859.595764,182.865814 821.225586,163.236115 777.185181,154.066452 
	C756.868652,149.836349 736.322449,147.870712 715.617432,149.376740 
	C698.735474,150.604721 688.738159,134.269913 692.958069,121.463371 
	C696.050354,112.078911 703.862061,106.534966 715.672791,106.058258 
	C754.943604,104.473190 793.045654,110.282280 829.719055,124.541046 
	C887.232361,146.902435 931.349243,184.630005 959.962097,239.633652 
	C974.401306,267.390747 983.255005,296.921783 985.501831,328.261780 
	C986.037781,335.737488 986.546875,343.245789 982.931519,350.281433 
	C978.567444,358.773956 968.534973,363.597626 959.461853,361.468903 
	C949.193604,359.059753 941.808716,350.366180 942.284485,340.333221 
	C943.143982,322.209656 939.028992,304.953949 933.495605,287.988922 
	C924.697693,261.015289 910.591187,237.073502 891.008057,216.002014 
z"/>
<path fill="#0395F9" opacity="1.000000" stroke="none" 
	d="
M61.330444,353.578583 
	C57.165253,347.892517 56.513950,341.705353 56.590973,335.252869 
	C56.856262,313.027710 61.705418,291.686798 68.939293,270.819061 
	C84.117714,227.033463 109.929451,190.589340 146.233490,161.970917 
	C184.940155,131.458527 229.356964,113.965103 278.194458,108.285530 
	C294.506256,106.388542 311.090027,106.075562 327.534424,106.275330 
	C345.654846,106.495476 355.777802,123.869781 347.197021,138.758102 
	C342.786682,146.410355 335.963898,149.473663 327.171539,149.395081 
	C315.526642,149.290970 303.791931,148.944565 292.242676,150.131485 
	C226.215424,156.917068 171.117706,183.852295 132.627029,239.578918 
	C113.261703,267.615967 101.997757,298.895355 99.854759,333.157288 
	C99.606232,337.130737 100.187721,341.238129 99.394562,345.079010 
	C97.566849,353.929718 91.660973,359.354309 83.018845,361.376587 
	C74.452065,363.381195 67.334084,360.316956 61.330444,353.578583 
z"/>
</svg>